<?xml version="1.0" encoding="utf-8"?>
<!-- Generator: Adobe Illustrator 27.5.0, SVG Export Plug-In . SVG Version: 6.00 Build 0)  -->
<svg version="1.1" xmlns="http://www.w3.org/2000/svg" xmlns:xlink="http://www.w3.org/1999/xlink" x="0px" y="0px"
	 viewBox="0 0 1122 1122" style="enable-background:new 0 0 1122 1122;" xml:space="preserve">
<g id="Bg">
	<rect id="XMLID_1089_" x="0" y="0" style="fill:#FFF6E3;" width="1122" height="1122"/>
</g>
<g id="Object">
	<g id="XMLID_119_">
		<circle id="XMLID_4416_" style="fill:#C45F43;" cx="561" cy="561" r="324.32"/>
		<g id="XMLID_4325_">
			<path id="XMLID_4327_" style="fill:#EBCB42;" d="M760.437,658.855c-4.771,40.232-30.296,75.013-67.421,91.351
				c-8.225,3.62-14.168-9.019-5.935-12.642c32.691-14.387,55.248-44.576,59.458-80.091
				C747.596,648.571,761.499,649.899,760.437,658.855z"/>
			<path id="XMLID_4326_" style="fill:#EBCB42;" d="M785.241,678.794c-4.771,40.232-30.296,75.013-67.421,91.351
				c-8.225,3.62-14.168-9.019-5.935-12.642c32.691-14.387,55.247-44.576,59.458-80.09
				C772.399,668.51,786.303,669.837,785.241,678.794z"/>
		</g>
		<g id="XMLID_4300_">
			
				<ellipse id="XMLID_4303_" transform="matrix(0.7071 -0.7071 0.7071 0.7071 -239.6585 565.041)" style="fill:#433930;" cx="562.236" cy="571.814" rx="177.729" ry="177.729"/>
			<g id="XMLID_4301_">
				<path id="XMLID_4302_" style="fill:#E0DBC0;" d="M481.236,505.354v134.911c0,16.373,16.934,27.26,31.83,20.464l147.84-67.455
					c17.542-8.004,17.542-32.924,0-40.927l-147.84-67.455C498.17,478.094,481.236,488.981,481.236,505.354z"/>
			</g>
		</g>
		<g id="XMLID_4297_">
			<path id="XMLID_4299_" style="fill:#EBCB42;" d="M565.21,317.032c-0.246-3.252-0.504-6.391-2.901-8.839
				c-1.632-1.667-4.071-1.05-5.305,0.677c-0.398,0.272-0.757,0.659-1.042,1.19c-0.091,0.169-0.186,0.334-0.286,0.494
				c-0.97,1.124-2.05,2.152-3.215,3.075c-3.508,2.02-8.307,2.014-12.155,1.13c-8.306-1.909-15.531-6.607-24.138-7.51
				c-1.791-0.188-3.421,1.701-3.381,3.381c0.546,22.917,1.091,45.833,1.637,68.75c0.03,1.282,0.097,2.641,0.168,4.041
				c-5.041-1.639-10.686-1.556-15.468,0.861c-5.395,2.727-9.612,9.368-11.423,14.986c-4.392,13.623,11.227,23.628,23.258,21.496
				c5.461-0.968,9.997-4.826,12.924-9.391c3.548-5.534,4.42-12.188,4.405-18.637c-0.033-14.611-1.134-29.293-1.758-43.891
				c-0.175-4.091-0.369-8.183-0.651-12.268c1.871,0.519,3.845,0.819,5.852,0.987c6.216,0.523,12.701,0.473,18.83-0.765
				c5.177-1.046,13.679-3.855,15.018-9.744C566.294,323.916,565.45,320.204,565.21,317.032z"/>
			<path id="XMLID_4298_" style="fill:#EBCB42;" d="M441.302,457.878c-0.628-27.25-1.256-54.5-1.884-81.75
				c-0.243-10.572-10.483-14.761-19.244-11.043c-30.625,12.994-61.25,25.988-91.875,38.982c-3.775,1.602-6.638,7.072-6.334,11.043
				c1.661,21.736,3.263,43.784,0.748,65.522c-0.148,1.275-0.317,2.551-0.504,3.826c-18.578,7.201-35.569,18.616-42.173,38.588
				c-3.41,10.313-2.128,22.503,6.233,30.098c8.872,8.059,21.881,7.229,32.121,2.554c20.718-9.459,32.444-31.346,34.113-53.29
				c1.048-13.785-0.129-27.909-0.47-41.713c-0.318-12.896-0.682-25.79-1.062-38.684c21.102-8.954,42.205-17.907,63.307-26.861
				c0.495,21.477,0.99,42.954,1.484,64.431c0.074,3.224,0.247,6.525,0.42,9.856c-0.155,0.046-0.304,0.077-0.461,0.129
				c-19.64,6.573-34.326,25.055-33.974,46.254c0.439,26.4,33.647,23.254,47.459,9.035
				C445.985,507.582,441.805,479.722,441.302,457.878z"/>
		</g>
	</g>
</g>
</svg>
