<svg xmlns="http://www.w3.org/2000/svg" xmlns:xlink="http://www.w3.org/1999/xlink" width="1599.215" height="1080" viewBox="0 0 1599.215 1080">
  <defs>
    <linearGradient id="linear-gradient" x1="0.399" x2="1" y2="1.54" gradientUnits="objectBoundingBox">
      <stop offset="0" stop-color="#f27bbd"/>
      <stop offset="1" stop-color="#dfd0b8"/>
    </linearGradient>
  </defs>
  <g id="Group_123" data-name="Group 123" transform="translate(-895.327 2422.245)">
    <path id="Path_420" data-name="Path 420" d="M609.429-15.982c24.83-15.306,27.852-11.094,27.852-11.094L1540.96,0V1050.45H0l63.872-32.945S555.322,691.4,578.857,554.033c23.6-137.718-121.257-26.851-192.586-54.444-20.182-7.807-45.473-31.919-45.473-70.643,0-78.837,22.756-158.772,80.3-245.874S584.6-.675,609.429-15.982Z" transform="translate(895.327 -2392.695)" fill="rgba(223,208,184,0.31)"/>
    <g id="Path_417" data-name="Path 417" transform="translate(953.582 -2422.245)" fill="url(#linear-gradient)">
      <path d="M 1540.4599609375 1079.5 L 2.010147333145142 1079.5 L 64.10638427734375 1046.570190429688 L 64.1309814453125 1046.557250976562 L 64.15398406982422 1046.541381835938 C 64.461181640625 1046.331787109375 95.40657806396484 1025.197631835938 141.3221740722656 991.9387817382812 C 168.2891845703125 972.4053955078125 195.0673828125 952.5734252929688 220.9129791259766 932.9937744140625 C 253.2205810546875 908.5189819335938 284.1535949707031 884.371826171875 312.8529663085938 861.2227783203125 C 385.9121704101562 802.293212890625 445.1167907714844 749.3958129882812 488.8221740722656 704 C 501.458984375 690.8745727539062 512.9494018554688 678.2103881835938 522.9739990234375 666.3590087890625 C 533.5296020507812 653.88037109375 542.7511596679688 641.9588012695312 550.3831787109375 630.9254150390625 C 558.392578125 619.34619140625 564.8735961914062 608.4227905273438 569.6461791992188 598.459228515625 C 574.6441650390625 588.0250244140625 577.9091796875 578.3491821289062 579.3505859375 569.7003784179688 C 580.54541015625 562.531005859375 581.2551879882812 555.82177734375 581.4599609375 549.7592163085938 C 581.6597900390625 543.851806640625 581.3863525390625 538.378173828125 580.6471557617188 533.4906005859375 C 579.9285888671875 528.7374267578125 578.7471923828125 524.3916015625 577.135986328125 520.573974609375 C 575.5741577148438 516.8734130859375 573.5599975585938 513.55419921875 571.1493530273438 510.7085876464844 C 568.86376953125 508.0105895996094 566.1510009765625 505.6549987792969 563.0866088867188 503.7073974609375 C 560.15478515625 501.843994140625 556.8059692382812 500.2937927246094 553.1329956054688 499.1000061035156 C 546.2962036132812 496.8778076171875 538.2528076171875 495.7973937988281 528.5431518554688 495.7973937988281 C 519.1405639648438 495.7973937988281 507.97216796875 496.8453979492188 494.4001770019531 499.0010070800781 C 482.2771911621094 500.9263916015625 469.2765808105469 503.55859375 456.7041931152344 506.10400390625 C 430.0747680664062 511.4953918457031 402.5389709472656 517.0703735351562 378.8591918945312 517.0703735351562 C 373.8447875976562 517.0703735351562 369.0891723632812 516.8159790039062 364.724365234375 516.3145751953125 C 360.099365234375 515.783203125 355.7421875 514.9550170898438 351.7733764648438 513.85302734375 C 347.6053771972656 512.6956176757812 343.7215881347656 511.1964111328125 340.2297668457031 509.3967895507812 C 336.5851745605469 507.5184020996094 333.2461853027344 505.2506103515625 330.3057861328125 502.6564025878906 C 327.2479858398438 499.9585876464844 324.5217895507812 496.8204040527344 322.2029724121094 493.3290100097656 C 319.7977905273438 489.7072143554688 317.7545776367188 485.5911865234375 316.1301879882812 481.0947875976562 C 314.4495849609375 476.4432067871094 313.1655883789062 471.2413940429688 312.3137817382812 465.6341857910156 C 311.4349670410156 459.8500061035156 310.9893798828125 453.4595947265625 310.9893798828125 446.6400146484375 C 310.9893798828125 436.5047912597656 311.54296875 425.6951904296875 312.6345825195312 414.5119934082031 C 313.7407836914062 403.1825866699219 315.4077758789062 391.3819885253906 317.5897827148438 379.4378051757812 C 319.8201904296875 367.2296142578125 322.6101684570312 354.7538146972656 325.882568359375 342.3564147949219 C 329.2517700195312 329.5924072265625 333.1739807128906 316.756591796875 337.539794921875 304.2054138183594 C 346.8097839355469 277.5559997558594 358.0847778320312 252.0652008056641 371.0517883300781 228.44140625 C 385.0853881835938 202.8744049072266 400.9919738769531 179.7243957519531 418.3299865722656 159.6343994140625 C 434.8381652832031 140.5057983398438 453.5663757324219 120.2310028076172 473.994384765625 99.37300109863281 C 490.3379821777344 82.68520355224609 507.7999877929688 65.58920288085938 525.8952026367188 48.55979919433594 C 555.43115234375 20.76313209533691 577.1038818359375 2.158180952072144 579.0418701171875 0.5 L 1540.4599609375 0.5 L 1540.4599609375 1079.5 Z" stroke="none"/>
      <path d="M 579.226806640625 1 C 576.561767578125 3.2835693359375 555.1728515625 21.692626953125 526.2329711914062 48.9283447265625 C 508.1434326171875 65.95281982421875 490.68701171875 83.04339599609375 474.3486328125 99.725830078125 C 453.92919921875 120.5751953125 435.209228515625 140.8413696289062 418.7083740234375 159.961181640625 C 401.3934326171875 180.0245971679688 385.5068359375 203.1456298828125 371.489990234375 228.6820068359375 C 358.536376953125 252.2813720703125 347.2728271484375 277.7463989257812 338.0118408203125 304.3698120117188 C 333.650146484375 316.9088134765625 329.73193359375 329.732421875 326.36572265625 342.4841918945312 C 323.0968017578125 354.8687744140625 320.309326171875 367.3322143554688 318.08154296875 379.527587890625 C 315.9019775390625 391.4581909179688 314.23681640625 403.2449951171875 313.1322021484375 414.5606079101562 C 312.0419921875 425.727783203125 311.4891357421875 436.5208129882812 311.4891357421875 446.6400146484375 C 311.4891357421875 453.4343872070312 311.9327392578125 459.7998046875 312.8077392578125 465.5592041015625 C 313.65478515625 471.1342163085938 314.9307861328125 476.3040161132812 316.6002197265625 480.9249877929688 C 318.2109375 485.3837890625 320.2362060546875 489.4639892578125 322.619384765625 493.0524291992188 C 324.9139404296875 496.5073852539062 327.611328125 499.6126098632812 330.63623046875 502.2813720703125 C 333.5457763671875 504.8485717773438 336.8505859375 507.093017578125 340.4586181640625 508.952392578125 C 343.920166015625 510.7362060546875 347.771728515625 512.2230224609375 351.906982421875 513.3712158203125 C 355.8505859375 514.4663696289062 360.18212890625 515.2896118164062 364.7811279296875 515.8179931640625 C 369.127197265625 516.3171997070312 373.863525390625 516.5703735351562 378.8590087890625 516.5703735351562 C 402.48876953125 516.5703735351562 429.999755859375 511.0004272460938 456.604736328125 505.614013671875 C 469.182373046875 503.0673828125 482.188232421875 500.4343872070312 494.32177734375 498.5072021484375 C 508.1090087890625 496.3173828125 518.9829711914062 495.2974243164062 528.5431518554688 495.2974243164062 C 538.30615234375 495.2974243164062 546.3999633789062 496.3856201171875 553.28759765625 498.6243896484375 C 557.0003662109375 499.8311767578125 560.3873901367188 501.3994140625 563.3545532226562 503.285400390625 C 566.4617919921875 505.2601928710938 569.2127685546875 507.6489868164062 571.53076171875 510.3853759765625 C 573.9741821289062 513.2695922851562 576.0149536132812 516.6322021484375 577.5965576171875 520.3795776367188 C 579.2239990234375 524.235595703125 580.4165649414062 528.62158203125 581.1416015625 533.415771484375 C 581.8853759765625 538.3338012695312 582.1605834960938 543.8380126953125 581.9597778320312 549.7760009765625 C 581.7539672851562 555.860595703125 581.0421752929688 562.591796875 579.84375 569.7825927734375 C 578.394775390625 578.477783203125 575.1156005859375 588.1986083984375 570.09716796875 598.6751708984375 C 565.3131713867188 608.66259765625 558.8187866210938 619.6087646484375 550.7943725585938 631.2098388671875 C 543.1533813476562 642.2564086914062 533.9215698242188 654.1910400390625 523.3557739257812 666.6820068359375 C 513.32421875 678.5413818359375 501.8265380859375 691.213623046875 489.182373046875 704.3468017578125 C 445.46240234375 749.757568359375 386.2421875 802.669189453125 313.166748046875 861.6119995117188 C 284.46337890625 884.7642211914062 253.5263671875 908.9146118164062 221.2147216796875 933.3923950195312 C 195.3663330078125 952.9741821289062 168.585205078125 972.8082275390625 141.6153564453125 992.3436279296875 C 95.6939697265625 1025.606567382812 64.7427978515625 1046.744750976562 64.435546875 1046.954345703125 L 64.3895263671875 1046.98583984375 L 64.340576171875 1047.011840820312 L 4.0201416015625 1079 L 1539.9599609375 1079 L 1539.9599609375 1 L 579.226806640625 1 M 578.8573608398438 0 L 1540.9599609375 0 L 1540.9599609375 1080 L 0 1080 L 63.8719482421875 1046.12841796875 C 63.8719482421875 1046.12841796875 555.3219604492188 710.8458251953125 578.8573608398438 569.6181640625 C 588.48095703125 511.870849609375 565.0384521484375 496.2974853515625 528.5430908203125 496.2974853515625 C 485.869140625 496.2974853515625 425.3291015625 517.5703125 378.8590087890625 517.5703125 C 339.66064453125 517.5703125 310.4891357421875 502.4429321289062 310.4891357421875 446.6400146484375 C 310.4891357421875 365.5853881835938 345.5435791015625 243.2086181640625 417.951416015625 159.3078002929688 C 490.359130859375 75.40679931640625 578.8573608398438 0 578.8573608398438 0 Z" stroke="none" fill="#707070"/>
    </g>
    <path id="Path_419" data-name="Path 419" d="M0,0H481.1s69.923,123.04-64.4,171.91c-61.791,22.48-151.939-17.333-237.938,38.384-25.885,16.771-34.594,113.4-79.282,121.224S0,241.576,0,241.576Z" transform="translate(2489.287 -1342.245) rotate(180)" fill="rgba(33,121,216,0.32)"/>
    <path id="Path_418" data-name="Path 418" d="M0,0H601.576S615.263,163.285,447.3,230.278c-77.265,30.817-116.243-18.377-223.778,58-32.368,22.99-96.54,102.567-164.773,111.832S0,331.162,0,331.162Z" transform="translate(2494.093 -1342.245) rotate(180)" fill="rgba(135,76,204,0.35)"/>
    <g id="XMLID_4_" transform="translate(1568.568 -2366)" opacity="0.4">
      <path id="XMLID_14_" d="M407.834,180.137a7.574,7.574,0,1,0-13.357-4.89c0,.172.014.34.026.51l-.052.008c.012-.172.026-.343.026-.518a7.576,7.576,0,1,0-12.592,5.667l12.592,12.777,12.636-12.818a7.591,7.591,0,0,0,.66-.67l.063-.064Z" transform="translate(327.328 43.554)" fill="#fff"/>
      <path id="XMLID_13_" d="M177.527,52.815a6.295,6.295,0,1,0-11.1-4.064c0,.143.012.283.021.424l-.043.007c.01-.143.022-.285.022-.43a6.3,6.3,0,1,0-10.464,4.709l10.464,10.618,10.5-10.652a6.262,6.262,0,0,0,.549-.556l.052-.053Z" transform="translate(59.43 -42.455)" fill="#fff"/>
      <path id="XMLID_12_" d="M101.279,260.547a6.295,6.295,0,1,0-11.1-4.064c0,.143.012.283.021.424l-.043.007c.01-.143.022-.285.022-.43a6.3,6.3,0,1,0-10.464,4.71l10.464,10.618,10.5-10.651a6.266,6.266,0,0,0,.549-.556l.052-.053Z" transform="translate(-15.402 98.646)" fill="#fff"/>
      <path id="XMLID_12_2" data-name="XMLID_12_" d="M92.387,255.666a3.031,3.031,0,0,0,.931-2.149c0-1.839-1.761-3.33-3.933-3.33s-3.933,1.491-3.933,3.33c0,.076.007.15.013.224l-.027,0c.006-.076.014-.151.014-.227,0-1.839-1.761-3.33-3.933-3.33s-3.933,1.491-3.933,3.33a3.127,3.127,0,0,0,1.329,2.491l6.537,5.615,6.56-5.633a3.671,3.671,0,0,0,.343-.294l.032-.028Z" transform="translate(82.129 3.76)" fill="#fff"/>
      <path id="XMLID_12_3" data-name="XMLID_12_" d="M101.279,260.547a6.295,6.295,0,1,0-11.1-4.064c0,.143.012.283.021.424l-.043.007c.01-.143.022-.285.022-.43a6.3,6.3,0,1,0-10.464,4.71l10.464,10.618,10.5-10.651a6.266,6.266,0,0,0,.549-.556l.052-.053Z" transform="translate(-77.586 -244.975)" fill="#fff"/>
      <path id="XMLID_12_4" data-name="XMLID_12_" d="M101.279,260.547a6.295,6.295,0,1,0-11.1-4.064c0,.143.012.283.021.424l-.043.007c.01-.143.022-.285.022-.43a6.3,6.3,0,1,0-10.464,4.71l10.464,10.618,10.5-10.651a6.266,6.266,0,0,0,.549-.556l.052-.053Z" transform="translate(-64.994 413.494)" fill="#fff"/>
      <path id="XMLID_11_" d="M451.269,300.26a3.036,3.036,0,1,0-5.353-1.96c0,.069.006.137.01.2l-.021,0c.005-.069.01-.137.01-.207a3.036,3.036,0,1,0-5.046,2.271l5.046,5.12,5.064-5.136a3.051,3.051,0,0,0,.265-.268l.025-.026Z" transform="translate(327.328 124.533)" fill="#fff"/>
      <path id="XMLID_10_" d="M399.829,53.049a3.035,3.035,0,1,0-5.353-1.959c0,.069.006.137.01.2l-.021,0c.005-.069.01-.138.01-.208a3.036,3.036,0,1,0-5.046,2.271l5.046,5.12,5.064-5.136a3.049,3.049,0,0,0,.265-.268l.025-.026Z" transform="translate(327.328 -42.455)" fill="#fff"/>
      <path id="XMLID_9_" d="M101.6,150.8a3.036,3.036,0,1,0-5.353-1.96c0,.069.006.137.01.2l-.021,0c0-.069.01-.138.01-.208a3.036,3.036,0,1,0-5.046,2.271l5.046,5.12,5.064-5.136a3.192,3.192,0,0,0,.265-.268l.025-.026Z" transform="translate(-15.402 25.813)" fill="#fff"/>
      <path id="XMLID_8_" d="M165.26,299.308a3.036,3.036,0,1,0-5.353-1.96c0,.069.006.137.01.2l-.021,0c.005-.069.01-.137.01-.207a3.036,3.036,0,1,0-5.046,2.271l5.046,5.12,5.064-5.136a3.193,3.193,0,0,0,.265-.268l.025-.026Z" transform="translate(56.736 123.904)" fill="#fff"/>
    </g>
    <path id="XMLID_333_" d="M127.516,204h-80.5s4.025-9.714,9.057-10.117,6.44,2.69,8.05,2.389,4.227-8.316,10.667-8.718,8.956,5.6,12.478,6.71,10.466.487,15.9-8.268,15.739.648,16,7.392c.4,10.365,16.2,4.612,16.2,10.612Z" transform="translate(1794.203 -2456.577)" fill="#fff"/>
    <path id="XMLID_333_2" data-name="XMLID_333_" d="M127.516,204h-80.5s4.025-9.714,9.057-10.117,6.44,2.69,8.05,2.389,4.227-8.316,10.667-8.718,8.956,5.6,12.478,6.71,10.466.487,15.9-8.268,15.739.648,16,7.392c.4,10.365,16.2,4.612,16.2,10.612Z" transform="translate(2241.733 -2407.803)" fill="#fff"/>
    <path id="XMLID_333_3" data-name="XMLID_333_" d="M127.516,204h-80.5s4.025-9.714,9.057-10.117,6.44,2.69,8.05,2.389,4.227-8.316,10.667-8.718,8.956,5.6,12.478,6.71,10.466.487,15.9-8.268,15.739.648,16,7.392c.4,10.365,16.2,4.612,16.2,10.612Z" transform="translate(1433.203 -2354.577)" fill="#fff"/>
  </g>
</svg>
