<?xml version="1.0" encoding="utf-8"?>
<!-- Generator: Adobe Illustrator 27.5.0, SVG Export Plug-In . SVG Version: 6.00 Build 0)  -->
<svg version="1.1" xmlns="http://www.w3.org/2000/svg" xmlns:xlink="http://www.w3.org/1999/xlink" x="0px" y="0px"
	 viewBox="0 0 1200 1200" style="enable-background:new 0 0 1200 1200;" xml:space="preserve">
<g id="Background">
	<rect style="fill:#F5F5F5;" width="1200" height="1200"/>
</g>
<g id="Graphic_Element">
	<g>
		<g>
			<g>
				<g>
					<path d="M1084.82,127.755h-35.246H925.056H889.81c-2.585,0-4.68,2.095-4.68,4.68v171.993c0,2.585,2.095,4.68,4.68,4.68h155.084
						c2.585,0,4.68-2.095,4.68-4.68v-60.813c0-2.585,2.095-4.68,4.68-4.68h30.566c2.585,0,4.68-2.095,4.68-4.68V132.435
						C1089.5,129.85,1087.404,127.755,1084.82,127.755z M1035.805,283.49c0,2.585-2.095,4.68-4.68,4.68H905.713
						c-2.585,0-4.68-2.095-4.68-4.68v-32.101c0-2.585,2.095-4.68,4.68-4.68h125.413c2.585,0,4.68,2.095,4.68,4.68V283.49z
						 M1035.805,231.307c0,2.585-2.095,4.68-4.68,4.68H905.713c-2.585,0-4.68-2.095-4.68-4.68v-32.101c0-2.585,2.095-4.68,4.68-4.68
						h125.413c2.585,0,4.68,2.095,4.68,4.68V231.307z M1035.805,179.125c0,2.585-2.095,4.68-4.68,4.68H905.713
						c-2.585,0-4.68-2.095-4.68-4.68v-32.101c0-2.585,2.095-4.68,4.68-4.68h125.413c2.585,0,4.68,2.095,4.68,4.68V179.125z"/>
				</g>
				<path d="M1035.805,202.581h-69.666c-2.585,0-4.68-2.095-4.68-4.68v-17.62c0-2.585,2.095-4.68,4.68-4.68h69.666V202.581z"/>
				<path d="M1035.805,256.182h-69.666c-2.585,0-4.68-2.095-4.68-4.68v-17.62c0-2.585,2.095-4.68,4.68-4.68h69.666V256.182z"/>
			</g>
			<path d="M1076.706,275.356c-3.283,0-6.429,2.887-6.277,6.277c0.152,3.401,2.758,6.277,6.277,6.277
				c3.283,0,6.429-2.887,6.277-6.277C1082.83,278.232,1080.225,275.356,1076.706,275.356z"/>
		</g>
		<path d="M671.126,240.25c0.012-15.009-9.603-29.244-22.874-35.988c-3.912-1.988-8.141-3.325-12.535-3.839
			c0.025-18.766,0.051-37.533,0.076-56.299c11.909-1.368,22.014-9.376,26.766-20.381c4.256-9.856,3.056-24.492-3.584-33.152
			c-6.136-8.002-15.721-12.889-25.766-12.223c-0.519,0.035-5.556,0.496-5.557,0.923c-0.033,19.459-0.066,38.919-0.099,58.379
			c-23.064,3.284-44.323,17.885-55.335,38.415c-11.013,20.53-11.366,46.51-0.582,67.161c10.784,20.651,32.505,35.269,55.729,37.114
			c0.55,12.511-1.107,23.587-10.636,29.558c-9.529,5.971-23.538,3.87-30.273-5.135c-2.87-3.838-4.379-8.546-7.174-12.438
			c-5.829-8.118-17.425-11.512-26.712-7.819c-8.806,3.502-14.79,12.231-23.697,15.466c6.021,1.171,6.989,9.156,7.713,15.247
			c2.471,20.8,19.652,38.987,40.279,42.635c8.807,1.558,17.979,0.398,26.269-2.885c8.335-3.301,15.855-8.754,21.392-15.824
			c1.381-1.763,2.637-3.626,3.747-5.572c4.888-8.573,7.264-18.397,7.495-28.163c0.106-4.476,0.248-10.538,0.288-15.619h0v-0.005
			c0.013-1.716,0.015-3.32,0-4.712v-5.123C655.183,277.536,671.11,259.548,671.126,240.25z M636.32,86.099
			c3.848,0.504,7.48,1.922,10.847,4.322c1.717,1.224,3.692,3.139,5.208,5.109c0.442,0.575,1.245,1.805,1.789,2.766
			c0.339,0.598,0.656,1.21,0.952,1.833c0.282,0.594,0.523,1.17,0.637,1.479c3.672,9.978,1.212,20.984-6.449,28.098
			c-1.754,1.629-4.498,3.429-6.6,4.333c-2.125,0.914-4.274,1.478-6.385,1.753c0-1.866,0-3.732,0-5.598c0-7.573,0-15.146,0-22.72
			c0-5.506,0-11.011,0-16.517L636.32,86.099z M549.181,305.748c-0.393-0.281-0.729-0.641-0.982-1.053
			c-4.677-7.609,3.595-15.325,10.861-10.131c0.393,0.281,0.729,0.641,0.982,1.053C564.718,303.226,556.447,310.941,549.181,305.748z
			 M602.757,339.504c-11.934-0.339-21.302-11.378-20.924-24.656c2.124,1.822,9.754,7.914,21.332,8.263
			c11.65,0.351,19.669-5.344,21.884-7.034C624.671,329.355,614.69,339.844,602.757,339.504z M612.636,269.139
			c-3.015-1.017-5.115-1.915-8.008-3.431c-2.87-1.504-5.623-3.232-8.23-5.157c-4.144-3.062-9.187-8.13-12.258-12.294
			c-1.951-2.646-3.705-5.437-5.243-8.342c-1.545-2.917-2.538-5.176-3.592-8.177c-4.424-12.592-4.896-25.926-1.288-38.68
			c3.534-12.493,10.694-23.638,20.537-32.276c9.232-8.101,20.887-13.442,33.055-14.749c0,2.546,0,5.093,0,7.639
			c0,11.875,0,23.75,0,35.625c0,3.98,0,7.96,0,11.94c-4.558,0.791-8.977,2.466-12.972,5.04c-2.679,1.726-5.134,3.793-7.3,6.13
			c-2.149,2.318-4.011,4.898-5.55,7.659c-1.541,2.763-2.758,5.705-3.633,8.745c-0.356,1.238-0.655,2.492-0.897,3.756
			c-0.123,0.642-0.231,1.287-0.324,1.934c-0.045,0.316-0.087,0.633-0.126,0.95c-0.45,3.726-0.346,7.676,1.165,11.183
			c0.36,0.837,0.798,1.639,1.296,2.401c2.042,3.13,4.908,4.695,8.598,4.695c2.832,0,5.056-0.791,6.671-2.372
			c1.614-1.581,2.421-3.739,2.421-6.473c0-2.733-0.692-4.776-2.075-6.128c-1.384-1.35-3.048-2.026-4.991-2.026
			c-1.7,0-3.411,0.277-5.136,0.831c0.724-8.759,4.695-16.839,11.638-22.574c3.08-2.544,7.027-4.483,11.213-5.496
			c0,4.957,0,9.915,0,14.872c0,10.425,0,20.85,0,31.275c0,5.488,0,10.977,0,16.465C622.518,271.803,617.79,270.877,612.636,269.139z
			 M635.749,271.704c0-2.962,0-5.923,0-8.885c0-9.994,0-19.988,0-29.982c0-8.003,0-16.006,0-24.009
			c2.057,0.121,3.789,0.435,6.098,1.131c8.501,2.563,15.769,9.649,18.942,17.979c1.919,5.038,2.585,9.658,2.212,15.016
			c-0.32,4.599-1.811,9.537-4.116,13.619C653.99,265.241,645.4,270.978,635.749,271.704z"/>
		<g>
			<circle cx="1011.678" cy="576.359" r="8.051"/>
			<circle cx="1011.678" cy="602.898" r="8.051"/>
			<circle cx="1011.678" cy="628.278" r="8.051"/>
			<path d="M1067.713,480.954l-4.499-7.324c-0.465-0.808-1.504-1.074-2.301-0.592c-22.624,13.693-36.607,38.415-36.607,64.934
				v116.771c0,4.759-0.738,9.367-2.104,13.71c-2.701,8.588-9.24,15.528-17.841,18.189c-2.242,0.694-4.711,1.144-7.408,1.22
				c-0.269,0.008-0.536,0.011-0.801,0.011c-12.918,0.001-23.294-10.703-23.294-23.621v-61.392c0-0.916-0.742-1.658-1.658-1.658
				h-62.626c-0.916,0-1.658,0.742-1.658,1.658v51.829c0,19.075,7.328,37.504,20.726,51.082c13.63,13.815,31.848,21.43,51.235,21.43
				c19.387,0,37.603-7.614,51.233-21.429c13.398-13.579,20.727-32.008,20.727-51.083l-10.727-114.589
				C1039.343,513.704,1048.873,493.222,1067.713,480.954z M961.584,688.732l-9.749-0.532c-13.643,0-24.704-11.847-24.704-26.462
				v-43.446c0-0.813,0.659-1.473,1.473-1.473h21.758c0.813,0,1.473,0.659,1.473,1.473v42.583c0,7.32,2.424,14.434,6.893,20.232
				l4.115,5.196C963.645,687.316,962.875,688.802,961.584,688.732z"/>
		</g>
		<g>
			<g>
				<path d="M197.697,156.125c-4.212,0-7.626,3.414-7.626,7.626c0,2.975,1.705,5.55,4.189,6.807v33.842h6.285v-33.575
					c2.801-1.129,4.779-3.87,4.779-7.075C205.324,159.54,201.909,156.125,197.697,156.125z"/>
				<path d="M224.604,156.125c-4.212,0-7.626,3.414-7.626,7.626c0,2.975,1.705,5.55,4.189,6.807v33.842h6.285v-33.575
					c2.801-1.129,4.779-3.87,4.779-7.075C232.23,159.54,228.815,156.125,224.604,156.125z"/>
				<path d="M259.136,163.751c0-4.212-3.414-7.626-7.626-7.626s-7.626,3.414-7.626,7.626c0,3.168,1.931,5.883,4.68,7.036v33.614
					h6.285v-33.792C257.387,169.371,259.136,166.766,259.136,163.751z"/>
			</g>
			<g>
				<path d="M342.774,149.706c-8.125,6.361-17.644,13.01-28.573,19.328c-5.659,3.271-11.166,6.144-16.469,8.679l-103.984,0.473
					c-14.54,0.066-28.197,5.777-38.455,16.082c-5.088,5.111-9.041,11.052-11.735,17.517H96.41c-2.69-3.527-6.934-5.804-11.712-5.804
					c-8.132,0-14.724,6.592-14.724,14.723c0,8.132,6.592,14.723,14.724,14.723c4.778,0,9.022-2.277,11.712-5.804h43.065
					c-0.06,1.052-0.09,2.109-0.09,3.171v5.305c0,27.187,22.118,49.306,49.306,49.306h70.997c20.849,0,37.811-16.962,37.811-37.811
					s-16.962-37.811-37.811-37.811h-95.881c1.219-1.743,2.597-3.393,4.129-4.931c6.907-6.939,16.103-10.784,25.893-10.829
					l105.487-0.48c6.401,3.041,13.119,6.662,20.025,10.991c8.922,5.594,16.709,11.46,23.4,17.114c0.814,0.688,1.97,0.026,1.97-1.126
					V150.86C344.71,149.729,343.594,149.065,342.774,149.706z M259.688,229.625c11.013,0,19.972,8.959,19.972,19.972
					c0,11.013-8.959,19.972-19.972,19.972H188.69c-17.351,0-31.466-14.116-31.466-31.466v-5.305c0-1.065,0.045-2.122,0.134-3.171
					H259.688z"/>
			</g>
		</g>
		<g>
			<path d="M151.703,722.547c5.159-2.776,10.54-7.605,15.154-13.597c10.409-13.519,13.35-27.833,6.842-33.295
				c-6.508-5.463-19.267,0.614-29.676,14.133c-4.614,5.992-7.974,12.517-9.462,18.373c-1.718,6.763-0.788,12.062,2.62,14.921
				c0.66,0.554,1.385,0.993,2.169,1.318C142.616,725.756,146.9,725.132,151.703,722.547z M140.933,709.619
				c1.22-4.803,4.18-10.493,8.119-15.609c3.94-5.117,8.626-9.357,12.857-11.634c2.917-1.57,5.48-2.109,6.942-1.502
				c0.214,0.089,0.404,0.202,0.568,0.34c1.289,1.082,1.491,4.112,0.527,7.907c-1.22,4.803-4.18,10.493-8.119,15.609
				c-3.94,5.117-8.626,9.357-12.857,11.634c-3.343,1.799-6.221,2.244-7.51,1.162C140.171,716.443,139.969,713.414,140.933,709.619z"
				/>
			<path d="M175.467,716.176c7.146-9.281,11.952-19.681,13.532-29.283c1.69-10.272-0.466-18.52-6.072-23.224
				c-5.606-4.704-13.785-5.13-23.031-1.199c-8.643,3.675-17.338,10.81-24.484,20.091c-7.105,9.227-11.893,19.56-13.501,29.115
				c1.542,4.457,3.781,8.497,6.727,11.948c-0.851-3.009-0.95-6.721-0.253-10.958c1.38-8.385,5.661-17.578,12.057-25.884
				s14.074-14.648,21.622-17.857c5.522-2.348,10.376-2.762,14.019-1.25c0.938,0.389,1.797,0.907,2.565,1.551
				c3.75,3.147,5.116,9.129,3.847,16.844c-1.38,8.386-5.662,17.578-12.057,25.884c-6.395,8.306-14.074,14.647-21.622,17.857
				c-3.411,1.45-6.567,2.161-9.341,2.137c4.228,2.006,8.859,3.088,13.712,3.298C161.093,731.355,168.929,724.669,175.467,716.176z"
				/>
			<path d="M191.054,653.114c-7.719-6.478-18.726-7.532-30.992-2.967c-11.765,4.378-23.394,13.478-32.745,25.622
				c-2.759,3.584-5.225,7.313-7.374,11.121c-0.764,5.529-0.806,10.914-0.114,15.97c2.682-7.799,6.947-15.636,12.518-22.871
				c8.532-11.081,19.043-19.347,29.596-23.274c7.711-2.87,14.695-3.13,20.221-0.837c1.678,0.696,3.222,1.628,4.61,2.792
				c5.96,5.002,8.506,13.844,7.167,24.897c-1.405,11.604-6.878,24.098-15.41,35.179c-4.856,6.306-10.353,11.699-16.133,15.901
				c5.184-0.87,10.481-2.62,15.693-5.199c1.893-2.047,3.721-4.211,5.469-6.481c9.351-12.145,15.363-25.958,16.93-38.894
				C202.125,670.588,198.773,659.592,191.054,653.114z"/>
			<path d="M294.572,582.967c0.815-4.951,1.016-10.067,0.463-15.064c-0.587-5.303-2.022-10.473-4.473-15.173
				c-4.279-8.205-11.38-14.238-18.521-19.883c-15.544-12.287-17.472-12.621-26.014-21.065c-3.731-3.688-9.058-9.012-14.351-17.071
				c-5.251-7.995-8.457-15.623-10.457-21.69c-0.146-0.717-0.367-1.406-0.653-2.061c-0.283-0.931-0.537-1.817-0.764-2.652
				c-0.087,0.282-0.173,0.56-0.258,0.837c-1.392-1.976-3.377-3.077-5.535-3.974c-0.868-0.361-1.992-0.419-2.92-0.419
				c-1.185,0-2.146,0.961-2.146,2.146v177.198l0.01,0.346c0.123,2.222,0.204,4.829,0.223,7.628
				c-2.047-4.517-4.905-8.365-8.533-11.41c-9.679-8.123-23.525-9.426-38.987-3.672c-10.84,4.034-21.594,11.23-31.227,20.771
				c-4.006,6.735-6.936,13.741-8.775,20.674c1.076-1.551,2.194-3.085,3.359-4.599c11.093-14.407,24.775-25.16,38.525-30.277
				c10.144-3.775,19.353-4.106,26.668-1.072c2.239,0.929,4.302,2.174,6.159,3.732c7.92,6.646,11.31,18.329,9.546,32.897
				c-1.831,15.119-8.949,31.38-20.042,45.788c-0.019,0.025-0.038,0.049-0.057,0.073c5.157-3.442,10.124-7.706,14.695-12.734
				c9.44-7.976,16.107-23.58,18.462-35.183c2.179-10.735,3.046-22.176,2.46-33.133V560.97c16.397,8.953,32.63,18.498,47.038,30.44
				c9.281,7.692,14.78,18.52,14.464,30.666c-0.266,10.225-2.99,19.696-5.825,29.425c-0.123,0.423-0.245,0.859-0.198,1.297
				c0.187,1.726,2.355,1.584,3.272,0.606c1.537-1.638,2.462-4.671,3.646-6.625c1.364-2.249,2.386-4.579,3.356-7.024
				c1.804-4.549,3.298-9.212,4.094-14.048c0.815-4.951,1.016-10.066,0.463-15.064c-0.406-3.667-1.218-7.269-2.49-10.697
				c0.432-0.96,0.837-1.935,1.232-2.931C292.282,592.466,293.776,587.803,294.572,582.967z M286.226,579.336
				c-0.108,4.145-0.624,8.166-1.384,12.131c-4.281-6.239-10.174-11.194-16.1-15.879c-15.544-12.287-17.472-12.621-26.014-21.065
				c-3.731-3.688-9.059-9.012-14.351-17.071c-2.891-4.401-5.16-8.691-6.952-12.67v-8.345c17.512,9.477,34.962,19.49,50.336,32.233
				C281.373,556.636,286.554,566.722,286.226,579.336z"/>
		</g>
		<g>
			<path d="M597.507,642.345h2.848c27.377,0,49.57-22.193,49.57-49.57v-14.576h-19.428v-9.514h19.428v-9.975h-19.428v-9.514h19.428
				v-9.975h-19.428v-9.515h19.428v-2.614c0-27.377-22.193-49.57-49.57-49.57h-2.848c-27.377,0-49.57,22.193-49.57,49.57v2.614
				h19.336v9.515h-19.336v9.975h19.336v9.514h-19.336v9.975h19.336v9.514h-19.336v14.576
				C547.936,620.152,570.13,642.345,597.507,642.345z"/>
			<path d="M648.457,668.373c-8.268,0-15.289,5.429-17.694,12.908h-26.032v-21.036c33.671-3.088,60.172-32.784,60.172-68.848h-10.85
				c0,32.129-24.727,58.269-55.122,58.269c-30.395,0-55.122-26.139-55.122-58.269h-10.85c0,36.064,26.502,65.761,60.172,68.848
				v21.036H576.82c-19.518,0-35.396,15.879-35.396,35.396v5.8h57.13h2.728h3.274v-4.938h0.175v-24.658h26.116
				c2.48,7.35,9.434,12.66,17.61,12.66c10.247,0,18.584-8.337,18.584-18.584C667.042,676.71,658.705,668.373,648.457,668.373z
				 M593.131,710.878h-39.393c2.596-10.328,11.96-17.996,23.081-17.996h16.311V710.878z M648.457,693.941
				c-3.851,0-6.984-3.133-6.984-6.984s3.133-6.984,6.984-6.984s6.984,3.133,6.984,6.984S652.308,693.941,648.457,693.941z"/>
		</g>
		<g>
			<g>
				<path d="M318.137,958.821l-6.244,0.293c2.919,9.977,5.119,22.257,5.119,32.754c0,14.806-2.899,29.169-8.617,42.687
					c-5.524,13.059-13.432,24.788-23.504,34.86c-10.073,10.073-21.802,17.981-34.861,23.504
					c-13.519,5.718-27.881,8.617-42.687,8.617c-14.807,0-29.169-2.899-42.687-8.617c-13.059-5.524-24.788-13.432-34.861-23.504
					c-10.073-10.073-17.981-21.801-23.504-34.86c-5.718-13.519-8.617-27.881-8.617-42.687c0-14.807,2.899-29.169,8.617-42.687
					c5.523-13.059,13.431-24.788,23.504-34.861c10.073-10.073,21.802-17.981,34.861-23.504c13.519-5.718,27.881-8.617,42.687-8.617
					c22.553,0,44.217,6.792,62.648,19.643c16.821,11.728,29.884,27.69,37.982,46.352h-5.956h-0.095h-10.77h-23.566h-4.039v5.908
					h4.039h26.445h7.892h0.095h14.677l-1.56-4.023c-8.338-21.491-22.78-39.847-41.764-53.084
					c-19.427-13.545-42.259-20.705-66.027-20.705c-15.602,0-30.738,3.056-44.989,9.084c-13.763,5.821-26.123,14.154-36.737,24.768
					c-10.614,10.614-18.947,22.974-24.768,36.737c-6.027,14.251-9.084,29.387-9.084,44.989c0,15.602,3.056,30.738,9.084,44.989
					c5.822,13.763,14.155,26.123,24.768,36.737c10.613,10.613,22.974,18.947,36.737,24.768c14.251,6.027,29.388,9.084,44.989,9.084
					c15.602,0,30.738-3.056,44.989-9.084c13.763-5.821,26.123-14.155,36.737-24.768c10.614-10.614,18.947-22.974,24.768-36.737
					c6.027-14.251,9.084-29.387,9.084-44.989C322.92,980.809,321.214,969.337,318.137,958.821z"/>
				<path d="M263.545,945.325v10.883c0,0.095-0.009,0.186-0.027,0.278c-0.033,0.171-0.098,0.331-0.183,0.476
					c-0.26,0.446-0.738,0.747-1.291,0.747h-20.541c-0.827,0-1.501-0.674-1.501-1.501v-10.883c0-0.83,0.673-1.501,1.501-1.501h20.541
					c0.786,0,1.424,0.606,1.489,1.377C263.536,945.243,263.545,945.284,263.545,945.325z"/>
			</g>
			<g>
				<path style="fill:none;" d="M162.227,1047.478c-11.91-9.546-19.39-23.159-21.061-38.331l-7.162,0.789
					c1.882,17.085,10.305,32.415,23.717,43.164c13.412,10.75,30.208,15.634,47.293,13.751l-0.789-7.162
					C189.051,1061.36,174.137,1057.024,162.227,1047.478z"/>
				<path style="fill:none;" d="M161.365,1004.709l-8.594,0.947c2.903,26.348,26.7,45.422,53.048,42.519l-0.947-8.594
					C183.229,1041.966,163.75,1026.353,161.365,1004.709z"/>
				<path style="fill:none;" d="M191.648,966.505c-7.691,4.219-13.056,11.78-14.498,20.432
					c-4.348,26.083,22.142,44.879,45.325,32.16c7.691-4.219,13.055-11.78,14.498-20.433
					C241.32,972.582,214.831,953.787,191.648,966.505z"/>
				<path d="M295.512,957.65h-27.927v1.265c0,0.816-0.661,1.477-1.477,1.477h-28.226c-0.816,0-1.477-0.661-1.477-1.477v-16.756
					c0-0.816,0.661-1.477,1.477-1.477h28.226c0.816,0,1.477,0.661,1.477,1.477v1.929h21.252
					c-22.703-38.092-70.722-57.714-117.137-39.737c-31.422,12.17-58.448,49.925-59.78,83.595
					c-2.85,72.03,69.764,121.502,136.556,90.739c28.605-13.175,48.6-40.131,52.832-71.339
					C303.761,989.268,301.381,972.456,295.512,957.65z M157.72,1053.1c-13.412-10.75-21.835-26.079-23.717-43.164l7.162-0.789
					c1.672,15.172,9.151,28.785,21.061,38.331c11.91,9.546,26.825,13.883,41.997,12.211l0.789,7.162
					C187.927,1068.734,171.132,1063.85,157.72,1053.1z M152.772,1005.656l8.594-0.947c2.385,21.644,21.864,37.257,43.508,34.872
					l0.947,8.594C179.472,1051.078,155.675,1032.004,152.772,1005.656z M236.973,998.665c-1.442,8.653-6.807,16.213-14.498,20.433
					c-23.184,12.718-49.673-6.077-45.325-32.16c1.442-8.653,6.807-16.213,14.498-20.432
					C214.831,953.787,241.32,972.582,236.973,998.665z"/>
			</g>
		</g>
		<path d="M1045.873,918.511l1.594,0.019c2.077,0.024,3.797-1.655,3.822-3.733l0.093-7.832c0.025-2.078-1.655-3.797-3.733-3.822
			l-1.594-0.019c-2.078-0.025-3.797,1.655-3.822,3.733l-0.014,1.213l-7.715-0.091l0.305-25.775c0.042-3.531-3.314-6.135-6.716-5.187
			c-3.126,0.872-6.256,1.968-9.374,2.182c-0.809,0.055-1.615-0.108-2.362-0.424c-6.237-2.645-15.809-8.406-27.721-8.38
			c-10.609,0.023-19.345,5.145-25.334,7.612c-0.932,0.384-1.956,0.484-2.948,0.304l-13.22-2.399
			c-3.235-0.587-6.221,1.876-6.26,5.164l-0.304,25.74l-7.331-0.087l0.014-1.213c0.025-2.078-1.655-3.797-3.733-3.822l-1.594-0.019
			c-2.078-0.025-3.797,1.655-3.822,3.733l-0.093,7.832c-0.025,2.077,1.655,3.797,3.733,3.822l1.594,0.019
			c2.077,0.025,3.797-1.655,3.822-3.733l0.004-0.381l7.331,0.087l-0.308,26.042l-7.33-0.087l0.014-1.213
			c0.025-2.078-1.655-3.797-3.733-3.822l-1.594-0.019c-2.077-0.024-3.797,1.655-3.822,3.733l-0.092,7.832
			c-0.025,2.077,1.655,3.797,3.733,3.822l1.594,0.019c2.078,0.025,3.797-1.655,3.822-3.733l0.005-0.381l7.331,0.087l-0.308,26.042
			l-7.331-0.087l0.014-1.213c0.024-2.078-1.655-3.797-3.733-3.822l-1.594-0.019c-2.077-0.025-3.797,1.655-3.822,3.733l-0.093,7.832
			c-0.024,2.077,1.655,3.797,3.732,3.822l1.594,0.019c2.078,0.025,3.797-1.655,3.822-3.733l0.005-0.381l7.33,0.087l-0.341,28.832
			c-0.035,2.924,2.326,5.312,5.25,5.312l0,0c11.92,0,21.544,9.738,21.403,21.658l-0.283,23.944l0.039,41.431
			c0,0.411,0.334,0.745,0.746,0.745h4.015c0.412,0,0.746-0.334,0.746-0.745v-41.365l11.513,0.136v55.037
			c0,0.412,0.334,0.745,0.746,0.745h4.014c0.412,0,0.745-0.334,0.745-0.745v-54.972l11.923,0.141v41.023
			c0,0.412,0.334,0.745,0.745,0.745h4.014c0.412,0,0.745-0.334,0.745-0.745l0.008-40.958l0.277-23.433
			c0.142-12.002,9.912-21.658,21.915-21.658h0.063c2.909,0,5.277-2.34,5.312-5.249l0.339-28.715l7.715,0.091l-0.005,0.381
			c-0.025,2.078,1.655,3.797,3.733,3.822l1.594,0.019c2.077,0.024,3.797-1.655,3.822-3.733l0.093-7.832
			c0.025-2.078-1.655-3.797-3.733-3.822l-1.594-0.019c-2.078-0.025-3.797,1.655-3.822,3.732l-0.014,1.213l-7.715-0.091l0.308-26.042
			l7.715,0.091l-0.005,0.381c-0.024,2.078,1.655,3.797,3.733,3.822l1.594,0.019c2.077,0.024,3.797-1.655,3.822-3.733l0.093-7.832
			c0.025-2.078-1.655-3.797-3.733-3.822l-1.594-0.019c-2.078-0.025-3.797,1.655-3.822,3.733l-0.014,1.213l-7.715-0.091l0.308-26.042
			l7.715,0.091l-0.005,0.381C1042.116,916.766,1043.795,918.486,1045.873,918.511z M956.984,980.694
			c-3.847-0.046-6.929-3.201-6.884-7.048c0.045-3.847,3.201-6.929,7.048-6.884c3.847,0.046,6.929,3.201,6.884,7.048
			C963.987,977.657,960.831,980.739,956.984,980.694z M957.359,948.993c-3.847-0.046-6.929-3.201-6.884-7.049
			c0.046-3.847,3.201-6.929,7.048-6.884c3.847,0.045,6.929,3.201,6.884,7.048C964.362,945.956,961.206,949.038,957.359,948.993z
			 M957.734,917.291c-3.847-0.045-6.929-3.201-6.884-7.048c0.046-3.847,3.201-6.929,7.048-6.884
			c3.847,0.045,6.929,3.201,6.884,7.048C964.736,914.255,961.581,917.337,957.734,917.291z M1016.79,981.401
			c-3.847-0.045-6.929-3.201-6.884-7.048c0.045-3.847,3.201-6.929,7.048-6.884c3.847,0.045,6.929,3.201,6.884,7.048
			C1023.793,978.364,1020.637,981.446,1016.79,981.401z M1017.164,949.699c-3.847-0.045-6.929-3.201-6.884-7.048
			c0.045-3.847,3.201-6.929,7.048-6.884c3.847,0.045,6.929,3.201,6.884,7.048C1024.167,946.663,1021.012,949.745,1017.164,949.699z
			 M1017.539,917.998c-3.847-0.045-6.929-3.201-6.884-7.048c0.046-3.847,3.201-6.929,7.048-6.884
			c3.847,0.046,6.929,3.201,6.884,7.048C1024.542,914.961,1021.386,918.043,1017.539,917.998z"/>
		<g>
			<path d="M655.05,1019.085L655.05,1019.085c-4.867,0-8.813-3.946-8.813-8.813v-36.809c0-4.867,3.946-8.813,8.813-8.813l0,0
				c4.867,0,8.813,3.946,8.813,8.813v36.809C663.862,1015.139,659.917,1019.085,655.05,1019.085z"/>
			<path d="M552.001,1034.893L552.001,1034.893c4.867,0,8.813-3.946,8.813-8.813v-68.426c0-4.867-3.946-8.813-8.813-8.813l0,0
				c-4.867,0-8.813,3.946-8.813,8.813v68.426C543.189,1030.948,547.134,1034.893,552.001,1034.893z"/>
			<path d="M515.023,1010.173L515.023,1010.173c4.867,0,8.813-3.946,8.813-8.813v-18.986c0-4.867-3.946-8.813-8.813-8.813h0
				c-4.867,0-8.813,3.946-8.813,8.813v18.986C506.21,1006.228,510.155,1010.173,515.023,1010.173z"/>
			<g>
				<path d="M619.819,918.715h-2.74c-4.111,0-7.443,3.332-7.443,7.443v14.273c0,3.815-3.093,6.908-6.908,6.908l0,0
					c-3.815,0-6.908-3.093-6.908-6.908v-42.549c0-4.811-3.771-8.884-8.58-9.008c-4.973-0.128-9.045,3.865-9.045,8.81v188.168
					c0,4.81,3.771,8.884,8.58,9.008c4.974,0.128,9.045-3.865,9.045-8.81v-42.747c0-3.815,3.093-6.908,6.908-6.908h0
					c3.815,0,6.908,3.093,6.908,6.908v14.274c0,4.111,3.332,7.443,7.443,7.443h2.74c4.111,0,7.443-3.332,7.443-7.443V926.158
					C627.262,922.047,623.929,918.715,619.819,918.715z M610.682,1015.169c0,3.375-2.736,6.111-6.111,6.111l0,0
					c-3.375,0-6.111-2.736-6.111-6.111v-48.755c0-3.375,2.736-6.111,6.111-6.111l0,0c3.375,0,6.111,2.736,6.111,6.111V1015.169z"/>
			</g>
			
				<ellipse transform="matrix(0.9239 -0.3827 0.3827 0.9239 -327.3876 337.8431)" cx="685.534" cy="991.867" rx="8.256" ry="8.256"/>
		</g>
	</g>
</g>
</svg>
