<svg id="_2483019_344201-PAOSFA-79" data-name="2483019_344201-PAOSFA-79" xmlns="http://www.w3.org/2000/svg" width="842" height="840" viewBox="0 0 842 840">
  <g id="BACKGROUND">
    <rect id="XMLID_2_" width="842" height="840" fill="#2179d8"/>
  </g>
  <g id="OBJECTS" transform="translate(15.605 42.455)">
    <path id="XMLID_262_" d="M379.731,340.477l1.007,6.3a2.253,2.253,0,0,0,2.7,1.846h0a2.252,2.252,0,0,0,1.754-2.508l-1.064-7.753Z" transform="translate(327.328 208.316)" fill="#fff"/>
    <g id="XMLID_232_" transform="translate(23.442 39.801)">
      <ellipse id="XMLID_231_" cx="377.985" cy="8.811" rx="377.985" ry="8.811" transform="translate(4.86 700.304)" fill="#f99" opacity="0.39"/>
      <g id="XMLID_303_">
        <text id="XMLID_1_" transform="translate(0 606.889)" fill="#fff" font-size="142" font-family="SegoeUI, Segoe UI"><tspan x="0" y="0">ISJQUIZ</tspan></text>
        <g id="XMLID_180_" transform="translate(292.021)">
          <g id="XMLID_104_" transform="translate(156.799)">
            <path id="XMLID_213_" d="M324.941,82.256h-8.216v9.016l8.939-8.979" transform="translate(-316.725 -82.256)" fill="#f6f6f6"/>
          </g>
          <g id="XMLID_3_" transform="translate(8.216 0)">
            <path id="XMLID_208_" d="M308.766,293.7H168.142V92.855a10.6,10.6,0,0,1,10.6-10.6H316.725v203.49A7.958,7.958,0,0,1,308.766,293.7Z" transform="translate(-168.142 -82.256)" fill="#f6f6f6"/>
          </g>
          <g id="XMLID_100_" transform="translate(156.799)">
            <path id="XMLID_205_" d="M333.157,119.439H316.725V90.472a8.216,8.216,0,0,1,8.216-8.216h0a8.216,8.216,0,0,1,8.216,8.216Z" transform="translate(-316.725 -82.256)" fill="#dadada"/>
          </g>
          <g id="XMLID_106_" transform="translate(0 174.265)">
            <path id="XMLID_194_" d="M159.926,256.521h16.432v28.967a8.215,8.215,0,0,1-8.216,8.216h0a8.216,8.216,0,0,1-8.216-8.216Z" transform="translate(-159.926 -256.521)" fill="#fff"/>
          </g>
          <g id="XMLID_103_" transform="translate(8.216 174.265)">
            <rect id="XMLID_289_" width="140.367" height="37.183" fill="#fff"/>
          </g>
          <g id="XMLID_105_" transform="translate(140.367 174.265)">
            <path id="XMLID_152_" d="M300.293,256.521h16.432v28.967a8.215,8.215,0,0,1-8.216,8.216h0a8.215,8.215,0,0,1-8.216-8.216Z" transform="translate(-300.293 -256.521)" fill="#dadada"/>
          </g>
          <g id="XMLID_107_" transform="translate(113.064 20.009)">
            <path id="XMLID_191_" d="M282.673,114.681h-6.95a2.736,2.736,0,0,1-2.733-2.733V105a2.737,2.737,0,0,1,2.733-2.733h6.95A2.736,2.736,0,0,1,285.406,105v6.95A2.735,2.735,0,0,1,282.673,114.681Zm-6.95-11.416A1.734,1.734,0,0,0,273.99,105v6.95a1.734,1.734,0,0,0,1.733,1.733h6.95a1.735,1.735,0,0,0,1.733-1.733V105a1.735,1.735,0,0,0-1.733-1.733Z" transform="translate(-272.99 -102.265)" fill="#e6332a"/>
          </g>
          <g id="XMLID_121_" transform="translate(113.064 42.009)">
            <path id="XMLID_179_" d="M282.673,136.681h-6.95a2.736,2.736,0,0,1-2.733-2.733V127a2.737,2.737,0,0,1,2.733-2.733h6.95A2.736,2.736,0,0,1,285.406,127v6.95A2.735,2.735,0,0,1,282.673,136.681Zm-6.95-11.416A1.734,1.734,0,0,0,273.99,127v6.95a1.734,1.734,0,0,0,1.733,1.733h6.95a1.735,1.735,0,0,0,1.733-1.733V127a1.735,1.735,0,0,0-1.733-1.733Z" transform="translate(-272.99 -124.265)" fill="#e6332a"/>
          </g>
          <g id="XMLID_122_" transform="translate(113.064 64.009)">
            <path id="XMLID_172_" d="M282.673,158.681h-6.95a2.736,2.736,0,0,1-2.733-2.733V149a2.737,2.737,0,0,1,2.733-2.733h6.95A2.736,2.736,0,0,1,285.406,149v6.95A2.735,2.735,0,0,1,282.673,158.681Zm-6.95-11.417A1.734,1.734,0,0,0,273.99,149v6.95a1.734,1.734,0,0,0,1.733,1.733h6.95a1.735,1.735,0,0,0,1.733-1.733V149a1.734,1.734,0,0,0-1.733-1.733Z" transform="translate(-272.99 -146.265)" fill="#e6332a"/>
          </g>
          <g id="XMLID_123_" transform="translate(113.064 86.009)">
            <path id="XMLID_168_" d="M282.673,180.681h-6.95a2.736,2.736,0,0,1-2.733-2.733V171a2.737,2.737,0,0,1,2.733-2.733h6.95A2.736,2.736,0,0,1,285.406,171v6.95A2.735,2.735,0,0,1,282.673,180.681Zm-6.95-11.417A1.734,1.734,0,0,0,273.99,171v6.95a1.734,1.734,0,0,0,1.733,1.733h6.95a1.735,1.735,0,0,0,1.733-1.733V171a1.734,1.734,0,0,0-1.733-1.733Z" transform="translate(-272.99 -168.265)" fill="#e6332a"/>
          </g>
          <g id="XMLID_124_" transform="translate(113.064 108.009)">
            <path id="XMLID_162_" d="M282.673,202.681h-6.95a2.736,2.736,0,0,1-2.733-2.733V193a2.737,2.737,0,0,1,2.733-2.733h6.95A2.736,2.736,0,0,1,285.406,193v6.95A2.735,2.735,0,0,1,282.673,202.681Zm-6.95-11.417A1.734,1.734,0,0,0,273.99,193v6.95a1.734,1.734,0,0,0,1.733,1.733h6.95a1.735,1.735,0,0,0,1.733-1.733V193a1.734,1.734,0,0,0-1.733-1.733Z" transform="translate(-272.99 -190.265)" fill="#e6332a"/>
          </g>
          <g id="XMLID_125_" transform="translate(113.064 130.009)">
            <path id="XMLID_157_" d="M282.673,224.681h-6.95a2.736,2.736,0,0,1-2.733-2.733V215a2.737,2.737,0,0,1,2.733-2.733h6.95A2.736,2.736,0,0,1,285.406,215v6.95A2.735,2.735,0,0,1,282.673,224.681Zm-6.95-11.417A1.734,1.734,0,0,0,273.99,215v6.95a1.734,1.734,0,0,0,1.733,1.733h6.95a1.735,1.735,0,0,0,1.733-1.733V215a1.734,1.734,0,0,0-1.733-1.733Z" transform="translate(-272.99 -212.265)" fill="#e6332a"/>
          </g>
          <g id="XMLID_131_" transform="translate(113.064 152.009)">
            <path id="XMLID_153_" d="M282.673,246.681h-6.95a2.737,2.737,0,0,1-2.733-2.733V237a2.737,2.737,0,0,1,2.733-2.733h6.95A2.736,2.736,0,0,1,285.406,237v6.95A2.736,2.736,0,0,1,282.673,246.681Zm-6.95-11.417A1.734,1.734,0,0,0,273.99,237v6.95a1.734,1.734,0,0,0,1.733,1.733h6.95a1.734,1.734,0,0,0,1.733-1.733V237a1.734,1.734,0,0,0-1.733-1.733Z" transform="translate(-272.99 -234.265)" fill="#e6332a"/>
          </g>
          <g id="XMLID_119_" transform="translate(26.564 20.508)">
            <rect id="XMLID_151_" width="76.667" height="5.708" fill="#dadada"/>
          </g>
          <g id="XMLID_142_" transform="translate(26.564 42.842)">
            <rect id="XMLID_149_" width="76.667" height="5.708" fill="#dadada"/>
          </g>
          <g id="XMLID_145_" transform="translate(26.564 52.092)">
            <rect id="XMLID_148_" width="31" height="5.708" fill="#dadada"/>
          </g>
          <g id="XMLID_154_" transform="translate(26.564 66.842)">
            <rect id="XMLID_147_" width="76.667" height="5.708" fill="#dadada"/>
          </g>
          <g id="XMLID_150_" transform="translate(26.564 85.633)">
            <rect id="XMLID_144_" width="76.667" height="5.708" fill="#dadada"/>
          </g>
          <g id="XMLID_159_" transform="translate(26.564 108.508)">
            <rect id="XMLID_143_" width="76.667" height="5.708" fill="#dadada"/>
          </g>
          <g id="XMLID_163_" transform="translate(26.564 117.071)">
            <rect id="XMLID_136_" width="76.667" height="5.708" fill="#dadada"/>
          </g>
          <g id="XMLID_169_" transform="translate(26.564 130.508)">
            <rect id="XMLID_135_" width="76.667" height="5.708" fill="#dadada"/>
          </g>
          <g id="XMLID_166_" transform="translate(26.564 139.071)">
            <rect id="XMLID_134_" width="41.167" height="5.708" fill="#dadada"/>
          </g>
          <g id="XMLID_173_" transform="translate(26.564 151.081)">
            <rect id="XMLID_133_" width="76.667" height="5.708" fill="#dadada"/>
          </g>
          <g id="XMLID_167_" transform="translate(26.564 159.644)">
            <rect id="XMLID_132_" width="41.167" height="5.708" fill="#dadada"/>
          </g>
          <g id="XMLID_146_" transform="translate(26.564 94.883)">
            <rect id="XMLID_126_" width="31" height="5.708" fill="#dadada"/>
          </g>
          <g id="XMLID_176_" transform="translate(115.575 16.166)">
            <path id="XMLID_130_" d="M279.282,112.038c-.042,0-.085,0-.128,0a1.5,1.5,0,0,1-1.2-.789,11.951,11.951,0,0,0-2.027-2.759,1.5,1.5,0,0,1,2.139-2.1,15.147,15.147,0,0,1,1.346,1.572,115.953,115.953,0,0,1,8.163-9.09,1.5,1.5,0,0,1,2.123,2.119,112.928,112.928,0,0,0-9.235,10.477A1.507,1.507,0,0,1,279.282,112.038Z" transform="translate(-275.501 -98.422)" fill="#575756"/>
          </g>
          <g id="XMLID_184_" transform="translate(115.575 38.889)">
            <path id="XMLID_129_" d="M279.282,134.76c-.042,0-.085,0-.128-.005a1.5,1.5,0,0,1-1.2-.789,11.951,11.951,0,0,0-2.027-2.759,1.5,1.5,0,0,1,2.139-2.1,15.147,15.147,0,0,1,1.346,1.572,116.1,116.1,0,0,1,8.163-9.089A1.5,1.5,0,0,1,289.7,123.7a112.879,112.879,0,0,0-9.235,10.476A1.51,1.51,0,0,1,279.282,134.76Z" transform="translate(-275.501 -121.145)" fill="#575756"/>
          </g>
          <g id="XMLID_187_" transform="translate(115.575 104.225)">
            <path id="XMLID_128_" d="M279.282,200.1c-.042,0-.085,0-.128-.005a1.5,1.5,0,0,1-1.2-.789,11.949,11.949,0,0,0-2.026-2.758,1.5,1.5,0,1,1,2.137-2.1,15.035,15.035,0,0,1,1.347,1.572,116.1,116.1,0,0,1,8.163-9.089,1.5,1.5,0,0,1,2.123,2.119,113.008,113.008,0,0,0-9.235,10.476A1.51,1.51,0,0,1,279.282,200.1Z" transform="translate(-275.501 -186.481)" fill="#575756"/>
          </g>
          <g id="XMLID_188_" transform="translate(115.575 147.127)">
            <path id="XMLID_127_" d="M279.282,243c-.042,0-.085,0-.128-.005a1.5,1.5,0,0,1-1.2-.789,11.951,11.951,0,0,0-2.027-2.759,1.5,1.5,0,0,1,2.139-2.1,15.147,15.147,0,0,1,1.346,1.572,115.953,115.953,0,0,1,8.163-9.09,1.5,1.5,0,0,1,2.123,2.119,112.8,112.8,0,0,0-9.235,10.477A1.507,1.507,0,0,1,279.282,243Z" transform="translate(-275.501 -229.383)" fill="#575756"/>
          </g>
        </g>
        <g id="XMLID_302_" transform="translate(292.021 271.635)">
          <path id="XMLID_264_" d="M340.359,376.918l1.212,5.043s1.5,7.612,4.509,9.018,1.5-9.988,1.261-10.618-1.1-7.612-1.765-8.626-.952-.413-4.491.688C341.085,372.423,339.573,373.647,340.359,376.918Z" transform="translate(-133.134 -167.913)"/>
          <path id="XMLID_255_" d="M372.4,329.061s-4.062,1.457-4.5,4.511,18.328,11.2,18.328,11.2.873-.036,0-1.164l-6.546-7.709s-2.428-3.855-4.4-4.582A7.555,7.555,0,0,1,372.4,329.061Z" transform="translate(-133.134 -167.913)"/>
          <path id="XMLID_253_" d="M340.359,368.263l1.08,5.219.749.466a2.238,2.238,0,0,0,3.177-.882h0v-5.472Z" transform="translate(-133.134 -167.913)" fill="#fff"/>
          <g id="XMLID_301_">
            <circle id="XMLID_300_" cx="4.063" cy="4.063" r="4.063" transform="translate(183.6 15.182)" fill="#1d1d1b"/>
            <circle id="XMLID_282_" cx="4.063" cy="4.063" r="4.063" transform="translate(187.953 31.763)" fill="#1d1d1b"/>
            <circle id="XMLID_283_" cx="4.063" cy="4.063" r="4.063" transform="translate(187.286 25.93)" fill="#1d1d1b"/>
            <g id="XMLID_271_" transform="translate(186.955 57.268)">
              <path id="XMLID_273_" d="M327.536,226.177c.266-.374.416-.584.531-.77.005-.009.01-.016.016-.025a4.294,4.294,0,0,0,1.275-.039,7.648,7.648,0,0,1,.8-.129c.243-.017.37-.028.4-.033.294.03.616.086.742.1a26.289,26.289,0,0,1,2.865.528c1.107.251,5.522,3.2,6.413,2.626l26.308,41.806-2.248,3.937-44.54-43.664S326.685,227.376,327.536,226.177Z" transform="translate(-320.089 -225.181)" fill="#ffcb9c"/>
            </g>
            <g id="XMLID_7_" transform="translate(113.988 71.414)">
              <path id="XMLID_272_" d="M279.239,240.029c-.32-.329-.5-.513-.643-.68l-.019-.022a4.286,4.286,0,0,1-1.266.157,7.733,7.733,0,0,0-.806-.006c-.242.021-.37.029-.4.028-.286.074-.6.179-.718.213a26.4,26.4,0,0,0-2.75.961,3.935,3.935,0,0,1-3.107-.13l-22.411,49.056,2.825,3.545,37.314-49.979S280.264,241.083,279.239,240.029Z" transform="translate(-247.122 -239.327)" fill="#ffcb9c"/>
            </g>
            <path id="XMLID_259_" d="M374.664,324.617l-2.26,4.443c-.271,1.264,1.495,4.3,2.772,4.5l2.06.325,2.291-9.642Z" transform="translate(-133.134 -167.913)" fill="#fff"/>
            <path id="XMLID_246_" d="M393.471,271.951c-7.208-.289-29.347.4-47.032,10.449-12.987,7.376-53.328,5.879-53.328,5.879S279.317,306.4,303.293,318.5s22.464,18.576,25.7,26.135c2.562,5.978,8.263,16.664,10.576,22.757a3.221,3.221,0,0,0,4.248,1.856l.049-.02a3.208,3.208,0,0,0,1.948-2.552c1.133-8.833,4.26-33.685,4.008-37.051-.308-4.1-13.4-21.6-13.4-21.6s27.323-2.16,38.339-10.152c0,0,1.106,15.012-.082,19.656-.487,1.906-1.173,4.642-1.814,7.212A61.733,61.733,0,0,1,379,327.988c4.869-7.9,18.567-30.659,20.957-40.484C402.867,275.514,398.9,272.168,393.471,271.951Z" transform="translate(-133.134 -167.913)" fill="#1b364f"/>
            <path id="XMLID_263_" d="M319.392,296.759s-2.652,9.38,9.3,19.357,21.049,17.614,20.145,25.512l-3.026,25.044s-1.77,4.975-5.683,1.666L332.933,353s-4.784-9.335-6.429-15.168c0,0-.863-5.26-12.339-13.167s-17.995-7.732-23.258-17.219,2.2-19.173,2.2-19.173Z" transform="translate(-133.134 -167.913)" fill="#274f6d" opacity="0.39"/>
            <g id="XMLID_222_" transform="translate(147.604 57.804)">
              <path id="XMLID_225_" d="M319.891,225.717l5.567,4.885a67.406,67.406,0,0,1,22.443,42.42l1,8.132L280.91,287.92l3.152-54.812Z" transform="translate(-280.738 -225.717)" fill="#662483"/>
              <path id="XMLID_223_" d="M348.9,281.154s-3.9,1.145-11.012,10.591c-11.282,14.986-52.843,8.673-56.982-3.825S348.9,281.154,348.9,281.154Z" transform="translate(-280.738 -225.717)" fill="#662483"/>
            </g>
            <path id="XMLID_266_" d="M285.395,249.464l-4.485,5.228-15.515-7.155s10-22.356,32.167-24.354L316,222.761l2.968,6.131Z" transform="translate(-133.134 -167.913)" fill="#662483"/>
            <path id="XMLID_274_" d="M335.516,246.61l4.878,8.082,14.167-7.155s-7.667-25.03-32.167-24.354l-18.436-.422-2.968,6.131Z" transform="translate(-133.134 -167.913)" fill="#662483"/>
            <g id="XMLID_6_" transform="translate(0 82.152)">
              <rect id="XMLID_270_" width="239.17" height="22.122" transform="translate(37.955 40.985) rotate(-9.864)" fill="#fff48d"/>
              <path id="XMLID_269_" d="M410.523,271.861l30.868-16.588-34.654-5.208h0a23.255,23.255,0,0,0,1.379,16.861Z" transform="translate(-133.134 -250.065)" fill="#fc6"/>
              <path id="XMLID_268_" d="M432.3,253.908s-1.278,1.986-.721,3.48a4.857,4.857,0,0,0,1.713,2.236l8.1-4.35Z" transform="translate(-133.134 -250.065)" fill="#1d1d1b"/>
              <rect id="XMLID_267_" width="22.95" height="22.122" transform="translate(15.361 44.925) rotate(-9.851)" fill="#1d1d1b"/>
              <rect id="XMLID_258_" width="3.39" height="22.122" transform="translate(18.681 44.319) rotate(-9.852)" fill="#ffed00"/>
              <rect id="XMLID_233_" width="3.39" height="22.122" transform="translate(28.574 42.601) rotate(-9.852)" fill="#ffed00"/>
              <path id="XMLID_229_" d="M146.089,317.843l6.189-1.075-3.785-21.8-6.189,1.075a11.061,11.061,0,0,0-9.005,12.79h0A11.06,11.06,0,0,0,146.089,317.843Z" transform="translate(-133.134 -250.065)" fill="#ff5e5a"/>
              <path id="XMLID_52_" d="M197.092,302.153l-12.811,2.225a3.55,3.55,0,0,1-4.093-2.882h0a3.55,3.55,0,0,1,2.882-4.093l12.811-2.225a3.55,3.55,0,0,1,4.093,2.882h0A3.552,3.552,0,0,1,197.092,302.153Z" transform="translate(-133.134 -250.065)" fill="#1d1d1b"/>
            </g>
            <path id="XMLID_276_" d="M244.666,302.3a6.969,6.969,0,0,1,1.045.064c.85-.828,3.514-3.431,3.768-3.816.3-.458.224-1.008-.568-.811s-4,3.4-4,3.4,2.023-4.187,2.645-5.242.356-2.709-.541-1.784-3.376,5.836-3.376,5.836,1.573-5.956,2.133-7.12-.368-1.7-1.107-1.417-3.7,9.054-3.7,9.054.989-5.56,1.506-7.359-.731-2.463-1.411-1.653c-.6.718-2.494,9.122-2.913,11.01C239.583,302.976,243.418,302.321,244.666,302.3Z" transform="translate(-133.134 -167.913)" fill="#ffcb9c"/>
            <path id="XMLID_275_" d="M294.561,193.844s-3.563-1.411-4.625,1.771-.25,9.634,5.25,11.345,4.723-4.063,4.723-4.063Z" transform="translate(-133.134 -167.913)" fill="#ffcb9c"/>
            <path id="XMLID_57_" d="M371.253,281.23a7.076,7.076,0,0,0-1.023.223c-.967-.687-4-2.851-4.308-3.193-.369-.407-.376-.961.436-.889s4.476,2.744,4.476,2.744-2.642-3.827-3.418-4.775-.767-2.622.261-1.846,4.231,5.249,4.231,5.249-2.468-5.644-3.2-6.708.1-1.732.877-1.57,5.042,8.38,5.042,8.38-1.83-5.343-2.617-7.041.345-2.546,1.141-1.85c.707.617,3.864,8.631,4.568,10.433C376.378,281.116,372.489,281.057,371.253,281.23Z" transform="translate(-133.134 -167.913)" fill="#ffcb9c"/>
            <path id="XMLID_212_" d="M326.724,199.709c.452,5.719-.344,11.035-8.416,15.911,0,0-3.849,4.93-1.831,10.82s-14.578,7.444-13.105-1.192-3.809-17.762-7.469-22.861-3.8-16.667,2.637-21.215c2.53-1.787,9.352-1.94,13.991-.321C320.4,183.6,326.067,191.4,326.724,199.709Z" transform="translate(-133.134 -167.913)" fill="#ffcb9c"/>
            <path id="XMLID_17_" d="M316.99,191.923a5.945,5.945,0,1,0,5.874-6.015A5.945,5.945,0,0,0,316.99,191.923Z" transform="translate(-133.134 -167.913)" fill="none" stroke="#1d1d1b" stroke-miterlimit="10" stroke-width="1"/>
            <path id="XMLID_18_" d="M302.05,192.1a5.945,5.945,0,1,0,5.874-6.015A5.945,5.945,0,0,0,302.05,192.1Z" transform="translate(-133.134 -167.913)" fill="none" stroke="#1d1d1b" stroke-miterlimit="10" stroke-width="1"/>
            <path id="XMLID_230_" d="M315.53,187.158l4.476,11.6-6.3.075Z" transform="translate(-133.134 -167.913)" fill="#ff6252"/>
            <line id="XMLID_28_" x1="5.504" y2="0.065" transform="translate(179.538 20.386)" fill="none" stroke="#1d1d1b" stroke-miterlimit="10" stroke-width="1"/>
            <path id="XMLID_32_" d="M319.415,191.939c.168.643.666,1.069,1.113.952s.672-.733.5-1.375-.666-1.069-1.113-.952S319.247,191.3,319.415,191.939Z" transform="translate(-133.134 -167.913)"/>
            <path id="XMLID_33_" d="M309.229,192.445c.168.643.666,1.069,1.113.952s.672-.733.5-1.375-.666-1.069-1.113-.952S309.061,191.8,309.229,192.445Z" transform="translate(-133.134 -167.913)"/>
            <circle id="XMLID_5_" cx="4.063" cy="4.063" r="4.063" transform="translate(163.052 30.921)" fill="#1d1d1b"/>
            <circle id="XMLID_294_" cx="4.063" cy="4.063" r="4.063" transform="translate(160.242 27.701)" fill="#1d1d1b"/>
            <circle id="XMLID_298_" cx="4.062" cy="4.062" r="4.062" transform="translate(158.99 21.869)" fill="#1d1d1b"/>
            <circle id="XMLID_299_" cx="4.063" cy="4.063" r="4.063" transform="translate(179.537 11.119)" fill="#1d1d1b"/>
            <circle id="XMLID_277_" cx="4.063" cy="4.063" r="4.063" transform="translate(166.052 36.171)" fill="#1d1d1b"/>
            <circle id="XMLID_278_" cx="4.063" cy="4.063" r="4.063" transform="translate(171.976 40.921)" fill="#1d1d1b"/>
            <circle id="XMLID_279_" cx="4.063" cy="4.063" r="4.063" transform="translate(178.545 43.588)" fill="#1d1d1b"/>
            <circle id="XMLID_280_" cx="4.063" cy="4.063" r="4.063" transform="translate(185.564 41.856)" fill="#1d1d1b"/>
            <circle id="XMLID_281_" cx="4.063" cy="4.063" r="4.063" transform="translate(187.953 37.597)" fill="#1d1d1b"/>
            <circle id="XMLID_285_" cx="4.063" cy="4.063" r="4.063" transform="translate(188.082 29.938)" fill="#1d1d1b"/>
            <circle id="XMLID_286_" cx="4.063" cy="4.063" r="4.063" transform="translate(182.809 34.984)" fill="#1d1d1b"/>
            <circle id="XMLID_287_" cx="4.063" cy="4.063" r="4.063" transform="translate(178.545 39.525)" fill="#1d1d1b"/>
            <circle id="XMLID_288_" cx="4.063" cy="4.063" r="4.063" transform="translate(170.95 36.859)" fill="#1d1d1b"/>
            <circle id="XMLID_290_" cx="4.063" cy="4.063" r="4.063" transform="translate(167.914 31.4)" fill="#1d1d1b"/>
            <circle id="XMLID_291_" cx="4.063" cy="4.063" r="4.063" transform="translate(175.475 32.109)" fill="#1d1d1b"/>
            <circle id="XMLID_292_" cx="4.063" cy="4.063" r="4.063" transform="translate(182.162 32.109)" fill="#1d1d1b"/>
            <circle id="XMLID_293_" cx="4.063" cy="4.063" r="4.063" transform="translate(176.039 36.859)" fill="#1d1d1b"/>
            <g id="XMLID_337_" transform="translate(175.012 34.046)">
              <g id="XMLID_341_">
                <path id="XMLID_343_" d="M317.343,203.629a7.364,7.364,0,0,1,3.025-.871c1.385.027,2.716.563,2.948,2.312s-1.512,2.995-3.62,4c-1.242.594-5.41,1.194-7.628.049s-3.373-2.039-3.827-3.574a3.03,3.03,0,0,1,2.008-3.456,3.3,3.3,0,0,1,3,.692A3.866,3.866,0,0,0,317.343,203.629Z" transform="translate(-308.146 -201.959)" fill="#fff"/>
              </g>
            </g>
            <path id="XMLID_296_" d="M292.268,187.005l-.22-.52a13.36,13.36,0,0,1,6.832-17.4h0a13.36,13.36,0,0,1,17.661,6.722l.64,1.428Z" transform="translate(-133.134 -167.913)" fill="#432918"/>
            <path id="XMLID_295_" d="M292.667,192.724l26.663-10.089a4.2,4.2,0,0,0,2.708-4.2l-.061-1.884a2.428,2.428,0,0,0-3.376-2.078l-31.006,12.291a2.429,2.429,0,0,0-.539,4.149l1.538,1.2A4.208,4.208,0,0,0,292.667,192.724Z" transform="translate(-133.134 -167.913)" fill="#683c11"/>
            <path id="XMLID_297_" d="M290.995,181.618l23.39-9.167,1.039,1.351-24.437,9.833Z" transform="translate(-133.134 -167.913)" fill="#fff"/>
          </g>
        </g>
      </g>
    </g>
    <path id="XMLID_304_" d="M439.845,452.164a5.988,5.988,0,0,0-6.108-2.943c-4.475.437-3.3-3.6-8.317-4.253s-5.919.827-12.016-4.294-11.161,4.025-15.7.231-7.785-9.9-15.468-7.537-4.446,8.416-9,10.7-9.293,3.019-11.215,8.219Z" transform="translate(327.328 297.545)" fill="#2fac66"/>
    <path id="XMLID_304_2" data-name="XMLID_304_" d="M439.845,452.164a5.988,5.988,0,0,0-6.108-2.943c-4.475.437-3.3-3.6-8.317-4.253s-5.919.827-12.016-4.294-11.161,4.025-15.7.231-7.785-9.9-15.468-7.537-4.446,8.416-9,10.7-9.293,3.019-11.215,8.219Z" transform="translate(-260.672 287.823)" fill="#2fac66"/>
    <path id="XMLID_306_" d="M197.044,450.5a5.988,5.988,0,0,1,6.108-2.943c4.475.437,3.3-3.6,8.317-4.253s5.919.827,12.016-4.294,11.161,4.025,15.7.231,7.785-9.9,15.468-7.537,4.446,8.416,9,10.7,9.293,3.019,11.215,8.219Z" transform="translate(141.279 297.545)" fill="#2fac66"/>
    <path id="XMLID_317_" d="M446.516,114H366.011s4.025-9.714,9.057-10.117,6.44,2.69,8.05,2.389,4.227-8.316,10.667-8.718,8.956,5.6,12.478,6.711,10.466.487,15.9-8.268,15.739.648,16,7.392c.4,10.365,16.2,4.612,16.2,10.612h-7.849Z" transform="translate(327.328 -14.732)" fill="#fff"/>
    <path id="XMLID_333_" d="M127.516,204h-80.5s4.025-9.714,9.057-10.117,6.44,2.69,8.05,2.389,4.227-8.316,10.667-8.718,8.956,5.6,12.478,6.71,10.466.487,15.9-8.268,15.739.648,16,7.392c.4,10.365,16.2,4.612,16.2,10.612Z" transform="translate(-15.402 86.968)" fill="#fff"/>
    <circle id="XMLID_332_" cx="43.061" cy="43.061" r="43.061" transform="translate(58.294)" fill="#fff48d"/>
    <g id="XMLID_4_" transform="translate(0 0)" opacity="0.4">
      <path id="XMLID_14_" d="M407.834,180.137a7.574,7.574,0,1,0-13.357-4.89c0,.172.014.34.026.51l-.052.008c.012-.172.026-.343.026-.518a7.576,7.576,0,1,0-12.592,5.667l12.592,12.777,12.636-12.818a7.591,7.591,0,0,0,.66-.67l.063-.064Z" transform="translate(327.328 -42.455)" fill="#fff"/>
      <path id="XMLID_13_" d="M177.527,52.815a6.295,6.295,0,1,0-11.1-4.064c0,.143.012.283.021.424l-.043.007c.01-.143.022-.285.022-.43a6.3,6.3,0,1,0-10.464,4.709l10.464,10.618,10.5-10.652a6.262,6.262,0,0,0,.549-.556l.052-.053Z" transform="translate(59.43 -42.455)" fill="#fff"/>
      <path id="XMLID_12_" d="M101.279,260.547a6.295,6.295,0,1,0-11.1-4.064c0,.143.012.283.021.424l-.043.007c.01-.143.022-.285.022-.43a6.3,6.3,0,1,0-10.464,4.71l10.464,10.618,10.5-10.651a6.266,6.266,0,0,0,.549-.556l.052-.053Z" transform="translate(-15.402 -42.455)" fill="#fff"/>
      <path id="XMLID_12_2" data-name="XMLID_12_" d="M92.387,255.666a3.031,3.031,0,0,0,.931-2.149c0-1.839-1.761-3.33-3.933-3.33s-3.933,1.491-3.933,3.33c0,.076.007.15.013.224l-.027,0c.006-.076.014-.151.014-.227,0-1.839-1.761-3.33-3.933-3.33s-3.933,1.491-3.933,3.33a3.127,3.127,0,0,0,1.329,2.491l6.537,5.615,6.56-5.633a3.671,3.671,0,0,0,.343-.294l.032-.028Z" transform="translate(82.129 -97.407)" fill="#fff"/>
      <path id="XMLID_12_3" data-name="XMLID_12_" d="M101.279,260.547a6.295,6.295,0,1,0-11.1-4.064c0,.143.012.283.021.424l-.043.007c.01-.143.022-.285.022-.43a6.3,6.3,0,1,0-10.464,4.71l10.464,10.618,10.5-10.651a6.266,6.266,0,0,0,.549-.556l.052-.053Z" transform="translate(-77.586 -244.975)" fill="#fff"/>
      <path id="XMLID_12_4" data-name="XMLID_12_" d="M101.279,260.547a6.295,6.295,0,1,0-11.1-4.064c0,.143.012.283.021.424l-.043.007c.01-.143.022-.285.022-.43a6.3,6.3,0,1,0-10.464,4.71l10.464,10.618,10.5-10.651a6.266,6.266,0,0,0,.549-.556l.052-.053Z" transform="translate(-64.994 145.039)" fill="#fff"/>
      <path id="XMLID_11_" d="M451.269,300.26a3.036,3.036,0,1,0-5.353-1.96c0,.069.006.137.01.2l-.021,0c.005-.069.01-.137.01-.207a3.036,3.036,0,1,0-5.046,2.271l5.046,5.12,5.064-5.136a3.051,3.051,0,0,0,.265-.268l.025-.026Z" transform="translate(327.328 -42.455)" fill="#fff"/>
      <path id="XMLID_10_" d="M399.829,53.049a3.035,3.035,0,1,0-5.353-1.959c0,.069.006.137.01.2l-.021,0c.005-.069.01-.138.01-.208a3.036,3.036,0,1,0-5.046,2.271l5.046,5.12,5.064-5.136a3.049,3.049,0,0,0,.265-.268l.025-.026Z" transform="translate(327.328 -42.455)" fill="#fff"/>
      <path id="XMLID_9_" d="M101.6,150.8a3.036,3.036,0,1,0-5.353-1.96c0,.069.006.137.01.2l-.021,0c0-.069.01-.138.01-.208a3.036,3.036,0,1,0-5.046,2.271l5.046,5.12,5.064-5.136a3.192,3.192,0,0,0,.265-.268l.025-.026Z" transform="translate(-15.402 -42.455)" fill="#fff"/>
      <path id="XMLID_8_" d="M165.26,299.308a3.036,3.036,0,1,0-5.353-1.96c0,.069.006.137.01.2l-.021,0c.005-.069.01-.137.01-.207a3.036,3.036,0,1,0-5.046,2.271l5.046,5.12,5.064-5.136a3.193,3.193,0,0,0,.265-.268l.025-.026Z" transform="translate(56.736 -42.455)" fill="#fff"/>
    </g>
  </g>
</svg>
